<?xml version="1.0" encoding="utf-8"?>
<!-- Generator: Adobe Illustrator 20.1.0, SVG Export Plug-In . SVG Version: 6.00 Build 0)  -->
<svg version="1.1" id="Layer_1" xmlns="http://www.w3.org/2000/svg" xmlns:xlink="http://www.w3.org/1999/xlink" x="0px" y="0px"
	 viewBox="0 0 200 200" style="enable-background:new 0 0 200 200;" xml:space="preserve">
<style type="text/css">
	.st0{fill:#4C4C4C;}
	.st1{fill:#D1D1D1;}
	.st2{fill:#B5B5B5;}
	.st3{fill:#C5EDEB;}
	.st4{fill:none;stroke:#020210;stroke-width:2;stroke-linecap:round;stroke-linejoin:round;stroke-miterlimit:10;}
	.st5{fill:none;stroke:#000000;stroke-width:2;stroke-linecap:round;stroke-linejoin:round;stroke-miterlimit:10;}
	.st6{fill:none;stroke:#FFFFFF;stroke-width:2;stroke-linecap:round;stroke-linejoin:round;stroke-miterlimit:10;}
	.st7{fill:none;stroke:#020210;stroke-width:2;stroke-linecap:round;stroke-linejoin:round;}
	.st8{fill:none;stroke:#020210;stroke-width:2;stroke-linecap:round;stroke-linejoin:round;stroke-dasharray:0,4;}
	.st9{fill:none;stroke:#020210;stroke-width:2;stroke-linecap:round;stroke-linejoin:round;stroke-dasharray:0,4.0177;}
</style>
<path class="st0" d="M92.5,143.1c0,2.2,1.8,4,4,4h8c2.2,0,4-1.8,4-4"/>
<rect x="88.5" y="139.1" class="st1" width="24" height="4"/>
<rect x="88.5" y="131.1" class="st1" width="24" height="4"/>
<rect x="88.5" y="123.1" class="st1" width="24" height="4"/>
<rect x="88.5" y="127.1" class="st2" width="24" height="4"/>
<rect x="88.5" y="135.1" class="st2" width="24" height="4"/>
<path class="st3" d="M100.3,38.8c-19.9,0-36,16.1-36,36c0,9.9,4,18.9,10.5,25.5c8,8.5,13.5,10.1,13.5,22.5h24
	c0-12.5,5.4-14.1,13.5-22.5h0c6.5-6.5,10.5-15.5,10.5-25.5C136.3,54.9,120.2,38.8,100.3,38.8z"/>
<g>
	<path class="st4" d="M126,100.6c6.5-6.5,10.5-15.5,10.5-25.5c0-19.9-16.1-36-36-36s-36,16.1-36,36c0,9.9,4,18.9,10.5,25.5"/>
</g>
<path class="st4" d="M88.5,123.1c0-12.5-5.4-14.1-13.5-22.5"/>
<path class="st4" d="M112.5,123.1c0-12.5,5.4-14.1,13.5-22.5"/>
<line class="st4" x1="88.5" y1="127.1" x2="112.5" y2="127.1"/>
<line class="st4" x1="88.5" y1="131.1" x2="112.5" y2="131.1"/>
<line class="st4" x1="88.5" y1="135.1" x2="112.5" y2="135.1"/>
<line class="st4" x1="88.5" y1="139.1" x2="112.5" y2="139.1"/>
<path class="st4" d="M92.5,143.1c0,2.2,1.8,4,4,4h8c2.2,0,4-1.8,4-4"/>
<line class="st4" x1="112.5" y1="143.1" x2="88.5" y2="143.1"/>
<line class="st4" x1="88.5" y1="143.1" x2="88.5" y2="123.1"/>
<line class="st4" x1="112.5" y1="123.1" x2="112.5" y2="143.1"/>
<path class="st5" d="M96.5,111.1c0-28-7.1-46.2-11.8-41.3c-2.4,2.6,2.6,9.3,9.8,9.3c4.4,0,9-5.4,9-12c0-1.1-1-3-3-3s-3,1.9-3,3
	c0,6.6,4.6,12,9,12c7.1,0,12.2-6.7,9.8-9.3c-4.6-5-11.8,13.3-11.8,41.3"/>
<line class="st5" x1="104.5" y1="111.1" x2="104.5" y2="123.1"/>
<line class="st5" x1="96.5" y1="111.1" x2="96.5" y2="123.1"/>
<line class="st4" x1="112.5" y1="123.1" x2="88.5" y2="123.1"/>
<path class="st6" d="M72.5,75.1c0-15.5,12.5-28,28-28"/>
<g>
	<line class="st7" x1="100.5" y1="147.1" x2="100.5" y2="147.1"/>
	<line class="st8" x1="100.5" y1="151.1" x2="100.5" y2="169.1"/>
	<line class="st7" x1="100.5" y1="171.1" x2="100.5" y2="171.1"/>
</g>
<g>
	<g>
		<line class="st7" x1="129.8" y1="108.4" x2="129.8" y2="108.4"/>
		<path class="st9" d="M132.7,105.6C140.3,97.7,145,87,145,75.1c0-24.3-19.7-44-44-44s-44,19.7-44,44c0,12.3,5.1,23.5,13.2,31.4"/>
		<line class="st7" x1="71.7" y1="107.9" x2="71.7" y2="107.9"/>
	</g>
</g>
</svg>
